<?xml version="1.0" encoding="iso-8859-1"?>
<!-- Uploaded to: SVG Repo, www.svgrepo.com, Generator: SVG Repo Mixer Tools -->
<svg fill="#000000" version="1.1" id="Layer_1" xmlns="http://www.w3.org/2000/svg" xmlns:xlink="http://www.w3.org/1999/xlink" 
	 viewBox="0 0 490 490" xml:space="preserve">
<g>
	<g>
		<g>
			<path d="M480,325h-45v-95v-95c0-22.056-17.944-40-40-40h-70V55h20c5.522,0,10-4.477,10-10V15c0-5.523-4.478-10-10-10H145
				c-5.523,0-10,4.477-10,10v30c0,5.523,4.477,10,10,10h20v40H95c-22.056,0-40,17.944-40,40v95v95H10c-5.523,0-10,4.477-10,10v140
				c0,5.523,4.477,10,10,10h55h360h55c5.522,0,10-4.477,10-10V335C490,329.477,485.522,325,480,325z M55,465H20V345h35V465z M155,35
				V25h180v10h-20H175H155z M305,55v40H185V55H305z M155,115h180v105H155V115z M355,275v20h-20v-20H355z M75,135
				c0-11.028,8.972-20,20-20h40v105H75V135z M155,275v20h-20v-20H155z M415,335v130H75V335v-95h60v15h-10c-5.523,0-10,4.477-10,10
				v40c0,5.523,4.477,10,10,10h40c5.523,0,10-4.477,10-10v-40c0-5.523-4.477-10-10-10h-10v-15h180v15h-10c-5.522,0-10,4.477-10,10
				v40c0,5.523,4.478,10,10,10h40c5.522,0,10-4.477,10-10v-40c0-5.523-4.478-10-10-10h-10v-15h60V335z M415,220h-60V115h40
				c11.028,0,20,8.972,20,20V220z M470,465h-35V345h35V465z"/>
			<path d="M365,330H125c-5.523,0-10,4.477-10,10v65c0,22.056,17.944,40,40,40h180c22.056,0,40-17.944,40-40v-65
				C375,334.477,370.522,330,365,330z M355,405c0,11.028-8.972,20-20,20H155c-11.028,0-20-8.972-20-20v-55h220V405z"/>
			<rect x="225" y="375" width="40" height="20"/>
			<path d="M245,130c-19.299,0-35,15.701-35,35s15.701,35,35,35s35-15.701,35-35S264.299,130,245,130z M245,180
				c-8.271,0-15-6.729-15-15s6.729-15,15-15s15,6.729,15,15S253.271,180,245,180z"/>
		</g>
	</g>
</g>
</svg>